<?xml version="1.0" encoding="utf-8"?>
<!-- Generator: Adobe Illustrator 16.0.4, SVG Export Plug-In . SVG Version: 6.00 Build 0)  -->
<svg version="1.2" baseProfile="tiny" id="Layer_1" xmlns="http://www.w3.org/2000/svg" xmlns:xlink="http://www.w3.org/1999/xlink"
	 x="0px" y="0px" width="2662.45px" height="441px" viewBox="0 0 2662.45 441" xml:space="preserve">
<g>
	<path d="M331.86,150.9h55.53L291.63,380h-48.09l-39.35-100.56L165.28,380h-48.09L21.87,150.9h55.09l68.21,174.01l27.98-74.33
		l-40.22-99.25h47.22l24.05,70.39l24.48-70.39h47.22l-39.79,99.25l27.54,74.33L331.86,150.9z"/>
	<path d="M414.49,118.98V60.83h58.59v58.15H414.49z M414.49,380V150.9h58.59V380H414.49z"/>
	<path d="M525.53,60.83h58.59v245.71c0,8.46,2.04,15.02,6.12,19.67c4.08,4.67,9.91,7,17.49,7c3.5,0,7.36-0.58,11.59-1.75
		c4.22-1.16,8.23-2.62,12.02-4.37l7.87,44.6c-7.87,3.79-17.05,6.71-27.54,8.74c-10.49,2.04-19.97,3.06-28.42,3.06
		c-18.36,0-32.57-4.88-42.63-14.65c-10.06-9.76-15.08-23.68-15.08-41.75V60.83z"/>
	<path d="M664.12,60.83h58.59v245.71c0,8.46,2.04,15.02,6.12,19.67c4.08,4.67,9.91,7,17.49,7c3.5,0,7.36-0.58,11.59-1.75
		c4.22-1.16,8.23-2.62,12.02-4.37l7.87,44.6c-7.87,3.79-17.05,6.71-27.54,8.74c-10.49,2.04-19.97,3.06-28.42,3.06
		c-18.36,0-32.57-4.88-42.63-14.65c-10.06-9.76-15.08-23.68-15.08-41.75V60.83z"/>
	<path d="M786.11,222.6c0-18.94,3.42-37.67,10.27-56.18c6.85-18.51,16.83-35.05,29.95-49.62c13.12-14.57,29.14-26.38,48.09-35.41
		c18.94-9.03,40.51-13.55,64.71-13.55c28.56,0,53.26,6.27,74.11,18.8c20.84,12.54,36.36,28.86,46.56,48.97l-46.34,31.92
		c-4.09-8.74-9.04-16.1-14.87-22.08c-5.83-5.97-12.1-10.71-18.8-14.21c-6.71-3.5-13.7-6.05-20.99-7.65
		c-7.29-1.6-14.43-2.4-21.42-2.4c-15.16,0-28.35,3.06-39.57,9.18c-11.22,6.12-20.55,14.07-27.98,23.83
		c-7.43,9.77-13.05,20.84-16.83,33.23c-3.79,12.39-5.68,24.7-5.68,36.94c0,13.7,2.19,26.89,6.56,39.57
		c4.37,12.68,10.56,23.83,18.58,33.45c8.01,9.62,17.63,17.35,28.86,23.17c11.22,5.83,23.53,8.74,36.94,8.74
		c7,0,14.28-0.87,21.86-2.62c7.58-1.75,14.79-4.52,21.64-8.31c6.85-3.78,13.19-8.67,19.02-14.65c5.83-5.97,10.49-13.18,13.99-21.64
		l49.41,28.42c-4.96,11.66-12.02,21.94-21.21,30.82c-9.18,8.89-19.53,16.4-31.04,22.52c-11.52,6.12-23.83,10.79-36.94,13.99
		c-13.12,3.2-25.95,4.81-38.48,4.81c-22.15,0-42.41-4.66-60.77-13.99c-18.36-9.32-34.18-21.49-47.44-36.51
		c-13.27-15.01-23.61-32.06-31.04-51.15C789.82,261.88,786.11,242.43,786.11,222.6z"/>
	<path d="M1161.67,384.37c-11.08,0-21.42-1.82-31.04-5.47c-9.62-3.64-17.93-8.74-24.92-15.3c-7-6.56-12.46-14.21-16.4-22.95
		c-3.94-8.74-5.9-18.36-5.9-28.86c0-10.78,2.4-20.77,7.21-29.95c4.81-9.18,11.51-16.98,20.11-23.39
		c8.59-6.41,18.87-11.44,30.82-15.08c11.95-3.64,25.07-5.47,39.35-5.47c10.2,0,20.18,0.87,29.95,2.62
		c9.76,1.75,18.43,4.23,26.01,7.43v-13.12c0-15.15-4.3-26.81-12.9-34.98c-8.6-8.16-21.36-12.24-38.26-12.24
		c-12.24,0-24.2,2.19-35.85,6.56c-11.66,4.37-23.61,10.79-35.85,19.24l-17.93-37.16c29.44-19.52,61.21-29.29,95.31-29.29
		c32.93,0,58.51,8.09,76.73,24.27c18.21,16.18,27.33,39.57,27.33,70.17v71.27c0,6.12,1.09,10.49,3.28,13.12
		c2.19,2.62,5.75,4.09,10.71,4.37V380c-9.91,2.04-18.51,3.06-25.79,3.06c-11.08,0-19.61-2.48-25.58-7.43
		c-5.98-4.95-9.69-11.51-11.15-19.67l-1.31-12.68c-10.21,13.41-22.59,23.61-37.16,30.6
		C1193.87,380.87,1178.28,384.37,1161.67,384.37z M1178.28,341.53c9.91,0,19.31-1.75,28.2-5.25c8.89-3.5,15.81-8.16,20.77-13.99
		c6.41-4.95,9.62-10.49,9.62-16.61v-26.23c-7-2.62-14.58-4.73-22.73-6.34c-8.16-1.6-16.03-2.4-23.61-2.4
		c-15.16,0-27.54,3.43-37.16,10.27c-9.62,6.85-14.43,15.52-14.43,26.01c0,9.91,3.79,18.14,11.37,24.7
		C1157.87,338.25,1167.2,341.53,1178.28,341.53z"/>
	<path d="M1420.05,384.37c-23.61,0-41.54-7.58-53.78-22.73c-12.24-15.15-18.36-37.6-18.36-67.33V150.9h58.59v130.73
		c0,35.27,12.68,52.9,38.04,52.9c11.37,0,22.37-3.42,33.01-10.27c10.64-6.85,19.31-17.27,26.01-31.26V150.9h58.59v161.77
		c0,6.12,1.09,10.49,3.28,13.12c2.19,2.62,5.75,4.09,10.71,4.37V380c-5.83,1.16-10.71,1.89-14.65,2.19
		c-3.94,0.29-7.51,0.44-10.71,0.44c-10.49,0-19.02-2.4-25.58-7.21c-6.56-4.81-10.42-11.44-11.59-19.89l-1.31-18.36
		c-10.21,15.74-23.32,27.54-39.35,35.41C1456.92,380.44,1439.29,384.37,1420.05,384.37z"/>
	<path d="M1619.86,60.83h58.59v245.71c0,8.46,2.04,15.02,6.12,19.67c4.08,4.67,9.91,7,17.49,7c3.5,0,7.36-0.58,11.59-1.75
		c4.22-1.16,8.23-2.62,12.02-4.37l7.87,44.6c-7.87,3.79-17.05,6.71-27.54,8.74c-10.49,2.04-19.97,3.06-28.42,3.06
		c-18.36,0-32.57-4.88-42.63-14.65c-10.06-9.76-15.08-23.68-15.08-41.75V60.83z"/>
	<path d="M1772.88,207.74h-30.17v-44.6h30.17v-13.99c0-12.53,2.11-24.48,6.34-35.85c4.22-11.37,10.34-21.2,18.36-29.51
		c8.01-8.31,17.78-14.93,29.29-19.89c11.51-4.95,24.55-7.43,39.13-7.43c16.61,0,31.84,2.7,45.69,8.09
		c13.84,5.4,26.89,12.17,39.13,20.33l-23.17,43.72c-7.58-6.7-16.47-12.09-26.67-16.18c-10.21-4.08-20.55-6.12-31.04-6.12
		c-13.12,0-22.81,4.08-29.07,12.24c-6.27,8.16-9.4,17.64-9.4,28.42v16.18h122.86V380h-58.59V207.74h-64.27V380h-58.59V207.74z"/>
	<path d="M2113.46,384.37c-18.36,0-34.98-3.14-49.84-9.4c-14.87-6.26-27.54-14.79-38.04-25.58c-10.49-10.78-18.58-23.32-24.27-37.6
		c-5.68-14.28-8.53-29.29-8.53-45.03c0-16.32,2.77-31.7,8.31-46.13c5.53-14.43,13.55-27.11,24.05-38.04s23.24-19.6,38.26-26.01
		c15.01-6.41,31.84-9.62,50.5-9.62c18.65,0,35.34,3.21,50.06,9.62c14.72,6.41,27.25,15.02,37.6,25.8
		c10.34,10.79,18.21,23.32,23.61,37.6c5.39,14.28,8.09,29.15,8.09,44.6c0,3.79-0.08,7.43-0.22,10.93c-0.15,3.5-0.51,6.41-1.09,8.74
		h-177.07c0.87,9.04,3.06,17.05,6.56,24.05c3.5,7,8.01,12.97,13.55,17.93c5.53,4.96,11.8,8.74,18.8,11.37
		c7,2.62,14.28,3.94,21.86,3.94c11.65,0,22.66-2.84,33.01-8.53c10.34-5.68,17.41-13.18,21.2-22.52l50.28,13.99
		c-8.46,17.49-21.94,31.85-40.44,43.07C2161.19,378.76,2139.11,384.37,2113.46,384.37z M2172.92,246.21
		c-1.46-17.19-7.8-30.97-19.02-41.32c-11.22-10.34-24.85-15.52-40.88-15.52c-7.87,0-15.23,1.39-22.08,4.15
		c-6.85,2.77-12.9,6.63-18.14,11.59c-5.25,4.96-9.55,10.93-12.9,17.93c-3.35,7-5.32,14.72-5.9,23.17H2172.92z"/>
	<path d="M2268.67,60.83h58.59v245.71c0,8.46,2.04,15.02,6.12,19.67c4.08,4.67,9.91,7,17.49,7c3.5,0,7.36-0.58,11.59-1.75
		c4.22-1.16,8.23-2.62,12.02-4.37l7.87,44.6c-7.87,3.79-17.05,6.71-27.54,8.74c-10.49,2.04-19.97,3.06-28.42,3.06
		c-18.36,0-32.57-4.88-42.63-14.65c-10.06-9.76-15.08-23.68-15.08-41.75V60.83z"/>
	<path d="M2502.58,384.37c-15.74,0-30.32-3.06-43.72-9.18c-13.41-6.12-24.92-14.57-34.54-25.36c-9.62-10.78-17.13-23.39-22.52-37.82
		c-5.4-14.43-8.09-29.95-8.09-46.56c0-16.61,2.55-32.06,7.65-46.34c5.1-14.28,12.17-26.81,21.21-37.6
		c9.03-10.78,19.82-19.24,32.35-25.36c12.53-6.12,26.23-9.18,41.1-9.18c16.9,0,32.13,4.08,45.69,12.24
		c13.55,8.16,24.12,18.8,31.7,31.92V60.83h58.59v251.83c0,6.12,1.02,10.49,3.06,13.12c2.04,2.62,5.53,4.09,10.49,4.37V380
		c-10.21,2.04-18.51,3.06-24.92,3.06c-10.49,0-19.09-2.62-25.8-7.87c-6.71-5.25-10.49-12.09-11.37-20.55l-1.31-14.43
		c-8.46,14.58-19.89,25.58-34.32,33.01C2533.4,380.66,2518.32,384.37,2502.58,384.37z M2517.88,334.53c5.53,0,11.22-0.94,17.05-2.84
		c5.83-1.89,11.22-4.59,16.18-8.09c4.95-3.5,9.4-7.58,13.33-12.24c3.94-4.66,6.92-9.76,8.96-15.3V241.4
		c-2.34-6.41-5.62-12.31-9.84-17.71c-4.23-5.39-9.04-10.06-14.43-13.99c-5.4-3.93-11.08-7.06-17.05-9.4
		c-5.98-2.33-11.88-3.5-17.71-3.5c-8.74,0-16.83,1.9-24.26,5.68c-7.43,3.79-13.77,8.96-19.02,15.52
		c-5.25,6.56-9.33,14.07-12.24,22.52c-2.92,8.46-4.37,17.2-4.37,26.23c0,9.62,1.6,18.51,4.81,26.67c3.2,8.16,7.58,15.3,13.12,21.42
		c5.53,6.12,12.17,10.93,19.89,14.43C2500.02,332.78,2508.55,334.53,2517.88,334.53z"/>
</g>
</svg>
