<?xml version="1.0" encoding="utf-8"?>
<!-- Generator: Adobe Illustrator 25.4.1, SVG Export Plug-In . SVG Version: 6.00 Build 0)  -->
<svg version="1.1" id="Layer_1" xmlns="http://www.w3.org/2000/svg" xmlns:xlink="http://www.w3.org/1999/xlink" x="0px" y="0px"
	 viewBox="0 0 511.3 511.3" style="enable-background:new 0 0 511.3 511.3;" xml:space="preserve">
<style type="text/css">
	.st0{fill:#707070;}
</style>
<path class="st0" d="M508.3,94.2c-2.6-2.6-6.9-3.5-10.4-2.6l-17.4,6.1c10.4-12.1,17.4-25.2,21.7-37.3c1.7-4.3,0.9-7.8-1.7-10.4
	c-2.6-2.6-6.9-3.5-10.4-1.7c-24.3,10.4-45.1,19.1-62.5,24.3c0,0.9-0.9,0-1.7,0c-13.9-7.8-47.7-25.2-72-25.2
	c-61.6,0.9-111.1,52.9-111.1,116.3v3.5c-90.3-17.4-139.7-43.4-193.5-99.8l-8.7-8.7l-5.2,10.4c-29.5,56.4-8.7,107.6,25.2,142.3
	c-15.6-2.6-26-7.8-35.6-15.6c-3.5-2.6-7.8-3.5-12.1-0.9c-3.5,1.7-5.2,6.9-4.3,11.3C20.6,247,51,280,84,299.9
	c-15.6,0-28.6-1.7-41.7-10.4c-3.5-1.7-8.7-1.7-12.1,0.9c-3.4,2.6-5.2,6.9-3.5,11.3c15.6,44.3,46,67.7,94.6,73.8
	C96.1,390.2,63.2,402.3,12,403.2c-5.2,0-9.5,3.5-11.3,7.8c-1.7,5.2,0,9.5,3.5,13c31.2,25.2,100.7,39.9,186.6,39.9
	c152.7,0,277.7-136.2,277.7-303.7v-2.6c19.1-9.5,34.7-27.8,42.5-52.9C511.8,101.2,510.9,96.8,508.3,94.2z M437.1,154.6l-4.7,1.5
	v13.4c0,142.5-105.8,258.5-235,258.5c-71.3,0-119.1-11.7-144.9-24.3c54.1-3.9,85.4-21.1,109.7-40l19.6-14.1h-23.5
	c-44.7,0-72-12.5-87.7-42.3c14.1,4.7,29,4.7,45.4,3.9c6.2-0.8,12.5-0.8,18.8-0.8l2.3-15.7c-29.8-8.6-65-35.3-82.2-71.3
	c15.7,7,32.9,8.6,48.6,8.6h24.3l-19.7-13.9c-16.4-11.7-65-53.3-41.5-112.8c50.1,49.4,97.9,72,184,87.7l9.4,1.5v-21.9
	c0-48.6,37.6-88.5,84.6-89.3c18.1-0.8,47.7,15.7,56.4,20.4c4.7,2.3,9.4,3.2,14.1,1.5c11.7-3.9,25.8-9.4,41.5-15.7
	c-7,11.7-16.4,22.7-29,32.9c-3.2,2.3-3.9,7-2.3,10.9c1.5,3.9,6.2,5.5,10.2,3.9L466,127C460.6,137.4,452,149.1,437.1,154.6z"/>
</svg>
